<?xml version="1.0" encoding="UTF-8"?>
<svg id="Layer_14" data-name="Layer 14" xmlns="http://www.w3.org/2000/svg" viewBox="0 0 3484 1114">
  <text transform="translate(1263.97 670.49)" font-size="435.4"><tspan x="0" y="0" fill="#fff" font-family="Inter-Light, Inter">Slug</tspan><tspan x="886.86" y="0" font-family="Inter-Black, Inter"> </tspan><tspan x="973.43" y="0" fill="#fff" font-family="Inter-Black, Inter" letter-spacing="-.02em">P</tspan><tspan x="1248.65" y="0" fill="#fff" font-family="Inter-Black, Inter">a</tspan><tspan x="1505.93" y="0" fill="#fff" font-family="Inter-Black, Inter" letter-spacing=".01em">t</tspan><tspan x="1687.12" y="0" fill="#fff" font-family="Inter-Black, Inter">h</tspan></text>
  <g>
    <path d="M969.24,557.38c0,93.68-35.34,181.93-99.73,249.51-2.07,2.18-4.17,4.33-6.3,6.46-68.37,68.38-159.28,106.03-255.97,106.03-20.47,0-40.69-1.69-60.48-5-73.7-12.32-141.6-47.13-195.49-101.03-68.38-68.37-106.03-159.28-106.03-255.97s37.65-187.6,106.03-255.97c68.37-68.38,159.28-106.03,255.97-106.03s187.6,37.65,255.97,106.03c68.38,68.37,106.03,159.28,106.03,255.97Z" fill="#fff"/>
    <path d="M1048.57,370.91c-24.12-57.04-58.65-108.26-102.63-152.23-43.97-43.98-95.19-78.51-152.23-102.63-59.09-25-121.83-37.67-186.47-37.67s-127.38,12.67-186.47,37.67c-57.04,24.12-108.26,58.65-152.23,102.63-43.98,43.97-78.51,95.19-102.63,152.23-25,59.09-37.67,121.83-37.67,186.47s12.67,127.38,37.67,186.47c24.12,57.04,58.65,108.26,102.63,152.23,43.97,43.98,95.19,78.51,152.23,102.63,59.09,25,121.83,37.67,186.47,37.67s127.38-12.67,186.47-37.67c57.04-24.12,108.26-58.65,152.23-102.63,43.98-43.97,78.51-95.19,102.63-152.23,25-59.09,37.67-121.83,37.67-186.47s-12.67-127.38-37.67-186.47Zm-179.06,435.98c-2.07,2.18-4.17,4.33-6.3,6.46-68.37,68.38-159.28,106.03-255.97,106.03-20.47,0-40.69-1.69-60.48-5-73.7-12.32-141.6-47.13-195.49-101.03-68.38-68.37-106.03-159.28-106.03-255.97s37.65-187.6,106.03-255.97c68.37-68.38,159.28-106.03,255.97-106.03s187.6,37.65,255.97,106.03c68.38,68.37,106.03,159.28,106.03,255.97s-35.34,181.93-99.73,249.51Z" fill="#231f20"/>
    <polygon points="397.26 542.11 552.84 323.14 809.27 455.68 642.16 602.62 397.26 542.11" fill="#231f20" stroke="#231f20" stroke-miterlimit="10" stroke-width="7"/>
    <path d="M869.51,806.89c-2.07,2.18-4.17,4.33-6.3,6.46-68.37,68.38-159.28,106.03-255.97,106.03-20.47,0-40.69-1.69-60.48-5-9.36-23.48-17.32-46.29-22.73-66.86-34.57-123.89-40.34-262.19-20.17-345.74,0,0-112.18-65.94-132.53-54.74-57.63,31.69-74.91-77.79,0-25.93,25.93-2.88,121.01,25.93,152.7,51.86,23.05-28.81,72.03-43.22,112.37-28.81,5.76-34.58,77.79-95.08,77.79-95.08,14.41-63.39,97.96-14.41,17.29,20.17-20.17,11.52-74.91,80.67-60.51,92.19,31.69,23.05,141.18,193.04,164.23,259.31,5.91,17,18.64,48.57,34.31,86.14Z" fill="#ffbf00"/>
  </g>
</svg>