<?xml version="1.0" encoding="UTF-8"?>
<svg id="Layer_11" data-name="Layer 11" xmlns="http://www.w3.org/2000/svg" viewBox="0 0 3076 1184">
  <g>
    <path d="M780.09,761.18c.21,21.65,.14,42.4-.5,62.18-.09,2.88-.2,5.73-.31,8.57-.49,11.79-1.22,23.23-2.22,34.29-3.36,36.89-9.97,69.71-22.26,97.99-.93,2.16-1.89,4.28-2.9,6.37-33.77,70.76-85.31,112.96-235.27,120.68-9.27,.48-18.91,.83-28.96,1.04-171.76,3.64-411.29-30.95-446.42-45.53-1.87-.77-3.15-1.48-3.82-2.13,0-.01,1.22-.01,3.46-.03,21.62-.24,140.03-2.83,193.44-42.62,42.23-31.44,38.98-141.97,38.98-253.33,0-158.58-17.67-341.23,158.4-389.13,8.09-31.3,16.57-80.07,.21-106.79-47.82-4.75-95.76-38.4-82.72-87.29,16.76-62.85,138.75-130.08,164.77,2.17,10.8,54.87-20.2,80.63-58.34,85.03,5.39,24.08,10.84,62.81,2.47,101.01,22.32-3.99,47.37-6.1,75.38-6.1s54.79,3.36,77.5,9.41c11.88-32.37,4.94-77.22-.05-100.42-36.78-6.81-69.93-36.3-69.15-89.13,.93-62.67,151.93-132.01,164.77,2.17,5.2,54.27-30.1,83.9-69.32,88,5.64,24.54,9.31,62.01-2.38,107.11,172.49,66.5,144.69,355.61,145.04,379.96,.05,3.75,.1,7.47,.15,11.16,.03,1.79,.04,3.57,.06,5.36Z" fill="#fdc700"/>
    <path d="M367.44,171.67c4.22-73.93,132.47-89.61,132.47,5.84s-136.37,62.34-132.47-5.84Z" fill="#fff"/>
    <path d="M567.16,170.98c1.81-74.11,128.58-89.61,128.58,5.84s-130.53,74.03-128.58-5.84Z" fill="#fff"/>
    <ellipse cx="445.36" cy="175.57" rx="50.65" ry="52.6"/>
    <ellipse cx="641.19" cy="180.72" rx="50.65" ry="52.6"/>
    <path d="M613.69,583.89c-13.01,45.53-91.06,69.38-112.74-6.5-4.55-25.06,8.24-26.19,23.31-21.59,9.93,3.01,20.86,8.52,28.42,11.25,2.8,1.02,5.14,1.67,6.81,1.67,26.02,0,67.21-30.35,54.2,15.18Z"/>
    <path d="M552.68,567.04c-23.24,44.19-25.8,24.85-28.42-11.25,9.93,3.01,20.86,8.52,28.42,11.25Z" fill="#fff"/>
    <path d="M238.81,1039.74c-63.96,20.07-197.56,7.02-197.56,7.02l-.36-2.16c21.62-.24,140.03-2.83,193.44-42.62,42.23-31.44,38.98-141.97,38.98-253.33,0,0,20.68,279.79-34.5,291.08Z" fill="#faaf3b"/>
  </g>
  <text transform="translate(951.43 705.49)" font-family="Inter-Black, Inter" font-size="435.4"><tspan x="0" y="0">Slug </tspan><tspan x="1070.53" y="0" fill="#fdc700" letter-spacing="-.02em">P</tspan><tspan x="1345.75" y="0" fill="#fdc700" letter-spacing="0em">a</tspan><tspan x="1603.02" y="0" fill="#fdc700" letter-spacing=".01em">t</tspan><tspan x="1784.22" y="0" fill="#fdc700">h</tspan></text>
</svg>