<?xml version="1.0" encoding="UTF-8"?>
<svg id="Layer_3" data-name="Layer 3" xmlns="http://www.w3.org/2000/svg" viewBox="0 0 1000 1000">
  <g id="Layer_5" data-name="Layer 5">
    <circle cx="504" cy="506" r="420.5" fill="#13a5dc" stroke="#231f20" stroke-miterlimit="10" stroke-width="117"/>
    <polyline points="334.35 482.09 337.24 629.03 331.47 646.32" fill="none" stroke="#000" stroke-linecap="round" stroke-miterlimit="10" stroke-width="9"/>
    <polygon points="294.02 490.74 449.6 271.77 706.03 404.3 538.92 551.24 294.02 490.74" fill="#231f20" stroke="#231f20" stroke-miterlimit="10" stroke-width="7"/>
  </g>
  <path d="M768.14,760c-68.21,70.44-163.33,114.27-267.44,114.17-18.44-.02-36.57-1.38-54.29-4-10.61-26-19.66-51.37-25.62-74.03-34.57-123.89-40.34-262.19-20.17-345.74,0,0-112.18-65.94-132.53-54.74-57.63,31.69-74.91-77.79,0-25.93,25.93-2.88,121.01,25.93,152.7,51.86,23.05-28.81,72.03-43.22,112.37-28.81,5.76-34.58,77.79-95.08,77.79-95.08,14.41-63.39,97.96-14.41,17.29,20.17-20.17,11.52-74.91,80.67-60.51,92.19,31.69,23.05,141.18,193.04,164.23,259.31,6.14,17.67,19.66,51.09,36.18,90.63Z" fill="#ffbf00" stroke="#231f20" stroke-miterlimit="10" stroke-width="18"/>
</svg>