<?xml version="1.0" encoding="UTF-8"?>
<svg id="Layer_2" data-name="Layer 2" xmlns="http://www.w3.org/2000/svg" viewBox="0 0 2972 1114">
  <defs>
    <style>
      .cls-1 {
        font-family: Lato-Black, Lato;
        font-size: 435.4px;
      }

      .cls-2, .cls-3, .cls-4 {
        fill: #fdc700;
      }

      .cls-5 {
        fill: #fff;
      }

      .cls-6 {
        fill: #f6921e;
      }

      .cls-3 {
        letter-spacing: -.02em;
      }

      .cls-4 {
        letter-spacing: 0em;
      }
    </style>
  </defs>
  <path class="cls-2" d="M964.8,588.06c3.46,205.71,19.02,335.36-250.66,331.91s-603.31-20.74-617.14-36.3c223-19.02,41.49-48.4,210.9-57.05s254.12,27.66,254.12-174.6c0-126.44-14.09-272.08,126.3-310.26,6.45-24.96,13.21-63.84,.17-85.15-38.13-3.79-76.36-30.61-65.97-69.6,13.36-50.11,110.64-103.72,131.38,1.73,8.61,43.75-16.11,64.29-46.52,67.8,4.3,19.21,8.64,50.08,1.97,80.54,17.81-3.18,37.77-4.86,60.11-4.86s43.68,2.68,61.78,7.5c9.47-25.81,3.94-61.58-.03-80.07-29.34-5.43-55.77-28.94-55.14-71.07,.74-49.98,121.15-105.26,131.38,1.73,4.15,43.27-23.99,66.9-55.27,70.17,4.49,19.57,7.42,49.44-1.9,85.4,137.53,53.02,114.53,242.19,114.53,242.19Z"/>
  <path class="cls-6" d="M714.14,919.97c-269.67-3.46-603.31-20.74-617.14-36.3,15.13-1.3,28.4-2.63,40.04-4.01,123.5,8,476.96,28.85,625.51,16.11,160.37-13.74,184.45-111.15,203.38-246.93,2.52,170.1-9.73,274.24-251.78,271.13Z"/>
  <path class="cls-5" d="M637.07,191.97c3.37-58.95,105.63-71.45,105.63,4.66s-108.73,49.71-105.63-4.66Z"/>
  <path class="cls-5" d="M796.32,191.41c1.44-59.09,102.52-71.45,102.52,4.66s-104.07,59.03-102.52-4.66Z"/>
  <ellipse cx="699.2" cy="195.07" rx="40.39" ry="41.94"/>
  <ellipse cx="855.34" cy="199.18" rx="40.39" ry="41.94"/>
  <path d="M833.42,520.65c-10.37,36.3-72.6,55.32-89.89-5.19-3.63-19.98,6.57-20.88,18.58-17.22,7.92,2.4,16.63,6.79,22.66,8.97,2.23,.81,4.1,1.33,5.43,1.33,20.74,0,53.59-24.2,43.22,12.1Z"/>
  <path class="cls-5" d="M784.77,507.21c-18.53,35.23-20.57,19.81-22.66-8.97,7.92,2.4,16.63,6.79,22.66,8.97Z"/>
  <text class="cls-1" transform="translate(1049.43 681.09)"><tspan x="0" y="0">Slug </tspan><tspan class="cls-3" x="924.33" y="0">P</tspan><tspan class="cls-4" x="1191.22" y="0">ath</tspan></text>
</svg>