<?xml version="1.0" encoding="UTF-8"?>
<svg id="Layer_10" data-name="Layer 10" xmlns="http://www.w3.org/2000/svg" viewBox="0 0 1000 1000">
  <path d="M795.59,634.89c.17,17.26,.11,33.81-.4,49.58-.07,2.3-.16,4.57-.25,6.83-.39,9.4-.97,18.52-1.77,27.34-2.68,29.41-7.95,55.58-17.75,78.13-.74,1.72-1.51,3.41-2.31,5.08-26.93,56.42-68.02,90.07-187.59,96.22-7.39,.38-15.08,.66-23.09,.83-136.95,2.9-327.94-24.68-355.95-36.3-1.49-.61-2.51-1.18-3.05-1.7,0,0,.97,0,2.76-.02,17.24-.19,111.65-2.26,154.24-33.98,33.67-25.07,31.08-113.2,31.08-201.99,0-126.44-14.09-272.08,126.3-310.27,6.45-24.96,13.21-63.84,.17-85.15-38.13-3.79-76.35-30.62-65.96-69.6,13.36-50.11,110.63-103.72,131.38,1.73,8.61,43.75-16.11,64.29-46.52,67.8,4.3,19.2,8.64,50.08,1.97,80.54,17.8-3.18,37.77-4.86,60.1-4.86s43.69,2.68,61.79,7.5c9.47-25.81,3.94-61.57-.04-80.07-29.33-5.43-55.76-28.94-55.14-71.07,.74-49.97,121.14-105.26,131.38,1.73,4.15,43.27-24,66.9-55.27,70.17,4.5,19.57,7.42,49.44-1.9,85.4,137.53,53.02,115.37,283.54,115.65,302.96,.04,2.99,.08,5.96,.12,8.9,.02,1.43,.03,2.85,.05,4.27Z" fill="#fdc700"/>
  <path d="M466.56,164.85c3.37-58.95,105.63-71.45,105.63,4.66s-108.73,49.71-105.63-4.66Z" fill="#fff"/>
  <path d="M625.8,164.3c1.44-59.09,102.52-71.45,102.52,4.66s-104.07,59.03-102.52-4.66Z" fill="#fff"/>
  <ellipse cx="528.69" cy="167.96" rx="40.39" ry="41.94"/>
  <ellipse cx="684.83" cy="172.07" rx="40.39" ry="41.94"/>
  <path d="M662.91,493.53c-10.37,36.3-72.6,55.32-89.89-5.19-3.63-19.98,6.57-20.88,18.58-17.22,7.92,2.4,16.63,6.79,22.66,8.97,2.23,.81,4.1,1.33,5.43,1.33,20.74,0,53.59-24.2,43.22,12.1Z"/>
  <path d="M614.26,480.1c-18.53,35.23-20.57,19.81-22.66-8.97,7.92,2.4,16.63,6.79,22.66,8.97Z" fill="#fff"/>
  <path d="M364,857c-51,16-157.52,5.6-157.52,5.6l-.29-1.72c17.24-.19,111.65-2.26,154.24-33.98,33.67-25.07,31.08-113.2,31.08-201.99,0,0,16.49,223.09-27.51,232.09Z" fill="#faaf3b"/>
</svg>